<svg xmlns="http://www.w3.org/2000/svg" width="96" height="96" fill="none"><path fill="#0021F5" d="M48 8C32.52 8 20 20.52 20 36c0 6.96 2 13.48 5.64 19.36 3.8 6.16 8.8 11.44 12.64 17.6 1.88 3 3.24 5.8 4.68 9.04 1.04 2.2 1.88 6 5.04 6s4-3.8 5-6c1.48-3.24 2.8-6.04 4.68-9.04 3.84-6.12 8.84-11.4 12.64-17.6C74 49.48 76 42.96 76 36 76 20.52 63.48 8 48 8Zm0 39c-5.52 0-10-4.48-10-10s4.48-10 10-10 10 4.48 10 10-4.48 10-10 10Z"/><path fill="#fff" d="M47.875 25.281c-.493 0-.906-.159-1.239-.477a1.56 1.56 0 0 1-.5-1.179v-3.313c0-.469.166-.862.5-1.18.333-.317.746-.476 1.239-.476.493 0 .906.159 1.24.476.333.318.5.711.5 1.18v3.313c0 .47-.167.862-.5 1.18-.334.317-.747.476-1.24.476Zm8.61 3.396a1.508 1.508 0 0 1-.477-1.14c0-.455.159-.848.478-1.18l2.435-2.36c.348-.33.761-.496 1.239-.496.479 0 .892.165 1.24.497.32.303.479.69.479 1.159 0 .47-.16.856-.479 1.16l-2.479 2.36c-.319.303-.724.455-1.217.455-.493 0-.9-.152-1.218-.455Zm5.307 9.854c-.493 0-.906-.159-1.239-.477a1.56 1.56 0 0 1-.5-1.179c0-.47.166-.863.5-1.18.333-.318.746-.476 1.239-.476h3.479c.493 0 .906.158 1.238.475.334.318.501.712.501 1.181 0 .47-.167.862-.5 1.18-.333.317-.746.476-1.24.476h-3.478ZM47.875 55.094c-.493 0-.906-.16-1.239-.477a1.56 1.56 0 0 1-.5-1.18v-3.312c0-.47.166-.862.5-1.18.333-.317.746-.476 1.239-.476.493 0 .906.159 1.24.477.333.317.5.71.5 1.179v3.313c0 .469-.167.862-.5 1.179-.334.318-.747.477-1.24.477ZM36.829 28.677l-2.48-2.32a1.597 1.597 0 0 1-.521-1.2c0-.47.174-.856.522-1.16.319-.303.725-.455 1.217-.455.493 0 .9.152 1.218.456l2.48 2.36c.318.303.477.69.477 1.16 0 .468-.159.855-.478 1.159a1.795 1.795 0 0 1-1.218.455c-.463 0-.87-.152-1.217-.455ZM58.92 49.752l-2.435-2.36a1.643 1.643 0 0 1-.478-1.18c0-.455.159-.835.478-1.139.319-.303.718-.455 1.197-.455.478 0 .89.152 1.238.455l2.48 2.32c.347.303.514.69.498 1.159-.013.469-.18.87-.499 1.2a1.763 1.763 0 0 1-1.26.497c-.494 0-.9-.165-1.219-.497ZM30.48 38.532c-.493 0-.906-.16-1.238-.478a1.56 1.56 0 0 1-.501-1.179c0-.47.167-.863.5-1.18.333-.318.746-.476 1.24-.476h3.478c.493 0 .907.158 1.24.475.334.318.5.712.5 1.181 0 .47-.166.862-.5 1.18-.333.317-.747.476-1.24.476H30.48Zm3.87 11.22c-.318-.303-.478-.69-.478-1.159 0-.47.16-.856.479-1.16l2.479-2.36c.319-.303.718-.455 1.197-.455.477 0 .89.152 1.238.455.348.332.522.725.522 1.181 0 .455-.174.848-.522 1.18l-2.435 2.318a1.763 1.763 0 0 1-1.262.497c-.492 0-.898-.165-1.217-.497Zm13.526-2.94c-2.9 0-5.364-.966-7.393-2.898-2.03-1.932-3.044-4.279-3.044-7.039s1.014-5.107 3.044-7.04c2.03-1.931 4.494-2.898 7.393-2.898 2.9 0 5.364.967 7.393 2.899 2.03 1.932 3.044 4.279 3.044 7.039s-1.014 5.107-3.044 7.04c-2.03 1.931-4.494 2.898-7.393 2.898Zm0-3.312c1.913 0 3.552-.649 4.914-1.946 1.363-1.297 2.044-2.857 2.044-4.679s-.681-3.382-2.044-4.679c-1.362-1.297-3-1.946-4.914-1.946-1.913 0-3.552.649-4.914 1.946-1.363 1.297-2.044 2.857-2.044 4.679s.681 3.382 2.044 4.679c1.362 1.297 3 1.946 4.914 1.946Z"/></svg>